<?xml version="1.0" encoding="utf-8"?>
<!-- Generator: Adobe Illustrator 27.5.0, SVG Export Plug-In . SVG Version: 6.00 Build 0)  -->
<svg version="1.1" xmlns="http://www.w3.org/2000/svg" xmlns:xlink="http://www.w3.org/1999/xlink" x="0px" y="0px"
	 viewBox="0 0 500 500" style="enable-background:new 0 0 500 500;" xml:space="preserve">
<g id="BACKGROUND">
	<rect style="fill:#FFFFFF;" width="500" height="500"/>
</g>
<g id="OBJECTS">
	<g>
		<defs>
			<rect id="SVGID_1_" width="500" height="500"/>
		</defs>
		<clipPath id="SVGID_00000157300636344550966640000010239874293878315658_">
			<use xlink:href="#SVGID_1_"  style="overflow:visible;"/>
		</clipPath>
		<path style="opacity:0.4196;clip-path:url(#SVGID_00000157300636344550966640000010239874293878315658_);fill:#E4F0F6;" d="
			M388.319,153.249c-17.492-18.997-40.72-34.855-66.538-35.371c-25.575-0.511-50.079,14.015-75.523,11.381
			c-46.937-4.858-77.022-64.998-124.1-61.789c-26.954,1.837-49.437,28.957-46.248,55.784c2.3,19.343,15.672,36.201,17.092,55.628
			c1.848,25.286-16.609,47.118-34.687,64.895s-38.173,36.948-41.083,62.134c-2.196,19.014,6.339,38.094,19.171,52.296
			c12.832,14.202,29.614,24.188,46.606,32.998c66.453,34.452,185.952,65.525,287.887,11.938
			C431.272,371.404,464.746,236.251,388.319,153.249z"/>
		<g style="clip-path:url(#SVGID_00000157300636344550966640000010239874293878315658_);">
			<g>
				<path style="opacity:0.651;fill:#BEE9E9;" d="M236.531,114.2c27.555,0.86,87.972,2.465,122.389,1.24
					c9.186-0.327,15.614-9.465,12.695-18.283c-0.961-2.904-2.486-5.609-4.543-7.867c-6.168-6.771-16.68-9.047-25.047-5.424
					c-0.767-11.901-10.594-22.562-22.276-24.167c-11.682-1.604-23.962,6.021-27.837,17.285c-8.423-5.467-19.312-6.856-28.813-3.674
					c-9.5,3.182-17.42,10.87-20.954,20.341c-4.355-0.813-8.456,2.291-11.801,6.285C225.708,105.475,229.361,113.976,236.531,114.2z"
					/>
				<path style="opacity:0.651;fill:#BEE9E9;" d="M14.194,312.712c49.324-0.094,97.572,3.439,146.945,3.18
					c6.147-0.032,11.25-4.803,11.889-10.988c0.487-4.713,0.614-9.435-0.087-14.11c-1.242-8.286-5.54-16.551-12.904-20.39
					c-7.364-3.839-17.857-1.725-21.628,5.737c-1.198-13.161-12.447-24.659-25.443-26.006c-12.996-1.347-26.317,7.604-30.128,20.245
					c-6.626-8.517-18.988-11.896-28.953-7.915c-9.965,3.981-16.708,14.993-15.795,25.792c-7.238-3.265-16.158-2.349-22.6,2.32
					c-3.784,2.743-6.036,4.716-8.562,8.947C3.476,305.309,7.514,312.724,14.194,312.712z"/>
				<path style="opacity:0.651;fill:#BEE9E9;" d="M304.525,433.754l145.045,7.651c3.485,0.184,6.765-1.901,7.937-5.226
					c3.121-8.858,2.793-19.071-2.728-26.492c-6.715-9.025-22.035-10.923-28.938-2.043c5.781-8.525,3.065-21.311-4.945-27.731
					c-8.011-6.42-19.924-6.611-28.889-1.648c-8.965,4.963-15.017,14.398-17.356,24.462c-4.73-8.848-15.032-14.295-24.913-13.172
					c-9.881,1.122-18.732,8.745-21.405,18.434c-10.368-4.674-23.667,3.855-27.878,20.068
					C299.732,430.836,301.687,433.605,304.525,433.754z"/>
			</g>
		</g>
		<g style="clip-path:url(#SVGID_00000157300636344550966640000010239874293878315658_);">
			<g>
				<g>
					<path style="fill:#FFC384;" d="M194.26,337.574c-1.376,6.156,1.048,12.534,6.071,16.35
						c13.34,10.135,33.045,14.36,49.316,13.832c19.792-0.642,38.902-10.111,52.365-24.632
						c11.648-12.564,19.144-28.689,21.202-45.405c0.617-5.014-1.521-10.02-5.607-12.991c-9.072-6.598-19.939-10.72-31.076-12.303
						c-13.795-1.96-27.979-0.153-41.234,4.142c-7.072,2.291-13.971,5.315-19.987,9.681
						C210.603,296.92,199.11,315.869,194.26,337.574z"/>
					<g>
						<path d="M321.588,291.575c-10.901,3.348-21.832,6.591-32.682,10.077c-10.848,3.487-21.641,7.148-32.22,11.364
							c-10.606,4.14-20.996,8.833-31.052,14.17c-5.031,2.663-9.966,5.509-14.778,8.552c-4.831,3.016-9.518,6.263-14.082,9.679
							c4.426-3.596,9.065-6.93,13.816-10.091c4.771-3.134,9.676-6.063,14.679-8.817c10.014-5.496,20.446-10.199,31.051-14.422
							c10.637-4.149,21.448-7.832,32.357-11.166C299.587,297.585,310.573,294.527,321.588,291.575z"/>
					</g>
					<g>
						<path style="fill:#E4F0F6;" d="M269.751,309.336c-23.532,9.02-46.087,18.807-66.846,32.897
							c-0.542,0.368-1.294,0.158-1.541-0.436c-0.241-0.577-0.309-0.861-0.629-1.575c-0.201-0.448-0.042-0.978,0.376-1.253
							c32.644-21.473,68.58-32.955,69.149-32.388C272.226,308.54,270.372,309.097,269.751,309.336z"/>
						<path style="fill:none;stroke:#E4F0F6;stroke-width:3;stroke-linecap:round;stroke-linejoin:round;stroke-miterlimit:10;" d="
							M269.607,314.992c-1.502-1.225-5.773-6.212-5.529-12.564"/>
						<path style="fill:none;stroke:#E4F0F6;stroke-width:3;stroke-linecap:round;stroke-linejoin:round;stroke-miterlimit:10;" d="
							M261.874,318.836c-3.15-3.482-5.006-8.107-5.138-12.801"/>
						<path style="fill:none;stroke:#E4F0F6;stroke-width:3;stroke-linecap:round;stroke-linejoin:round;stroke-miterlimit:10;" d="
							M254.238,322.108c-2.993-3.59-4.691-8.237-4.718-12.91"/>
						<path style="fill:none;stroke:#E4F0F6;stroke-width:3;stroke-linecap:round;stroke-linejoin:round;stroke-miterlimit:10;" d="
							M247.621,325.633c-5.159-5.06-5.375-13.827-5.375-13.827"/>
						<path style="fill:none;stroke:#E4F0F6;stroke-width:3;stroke-linecap:round;stroke-linejoin:round;stroke-miterlimit:10;" d="
							M240.469,327.886c-3.471-3.749-5.461-8.834-5.456-13.944"/>
						<path style="fill:none;stroke:#E4F0F6;stroke-width:3;stroke-linecap:round;stroke-linejoin:round;stroke-miterlimit:10;" d="
							M232.813,331.195c-4.95-7.088-4.997-9.139-4.635-15.111"/>
						<path style="fill:none;stroke:#E4F0F6;stroke-width:3;stroke-linecap:round;stroke-linejoin:round;stroke-miterlimit:10;" d="
							M225.345,335.262c-3.398-3.757-6.426-10.715-5.445-15.684"/>
						<path style="fill:none;stroke:#E4F0F6;stroke-width:3;stroke-linecap:round;stroke-linejoin:round;stroke-miterlimit:10;" d="
							M216.529,339.205c-1.443-2.554-2.897-5.133-3.757-7.937c-0.86-2.804-1.089-5.891-0.076-8.644"/>
						<path style="fill:none;stroke:#E4F0F6;stroke-width:3;stroke-linecap:round;stroke-linejoin:round;stroke-miterlimit:10;" d="
							M210.295,343.458c-3.938-3.57-5.369-9.644-3.44-14.597"/>
					</g>
					<g>
						<g>
							<path d="M263.301,308.675c0.515,0.408,0.767,0.818,1.005,1.255c0.211,0.45,0.389,0.897,0.408,1.555
								c-0.643-0.166-1.038-0.613-1.301-1.106C263.175,309.873,263.052,309.289,263.301,308.675z"/>
						</g>
						<g>
							<path d="M266.227,307.581c0.564,0.219,0.858,0.583,1.089,0.98c0.203,0.412,0.341,0.859,0.207,1.451
								c-0.566-0.219-0.86-0.582-1.089-0.98C266.233,308.619,266.095,308.172,266.227,307.581z"/>
						</g>
						<g>
							<path d="M258.952,310.035c0.54,0.394,0.809,0.833,1.046,1.3c0.209,0.479,0.375,0.967,0.331,1.635
								c-0.627-0.245-0.985-0.709-1.236-1.211C258.87,311.245,258.742,310.674,258.952,310.035z"/>
						</g>
						<g>
							<path d="M255.828,311.413c0.443,0.431,0.631,0.806,0.806,1.21c0.149,0.414,0.265,0.817,0.231,1.436
								c-0.608-0.149-0.961-0.593-1.162-1.071C255.528,312.5,255.485,311.935,255.828,311.413z"/>
						</g>
						<g>
							<path d="M251.559,313.049c0.471,0.471,0.675,0.929,0.855,1.41c0.152,0.491,0.267,0.978,0.177,1.639
								c-0.609-0.284-0.93-0.788-1.124-1.319C251.301,314.239,251.249,313.644,251.559,313.049z"/>
						</g>
						<g>
							<path d="M248.53,314.099c0.455,0.501,0.65,0.973,0.824,1.468c0.146,0.504,0.26,1.001,0.177,1.674
								c-0.616-0.296-0.939-0.821-1.129-1.371C248.241,315.311,248.201,314.697,248.53,314.099z"/>
						</g>
						<g>
							<path d="M244.464,315.824c0.359,0.619,0.521,1.113,0.697,1.633c0.154,0.527,0.303,1.025,0.359,1.739
								c-0.69-0.231-1.106-0.819-1.313-1.44C244.024,317.128,244.03,316.408,244.464,315.824z"/>
						</g>
						<g>
							<path d="M241.483,317.222c0.432,0.557,0.614,1.062,0.785,1.59c0.143,0.536,0.262,1.06,0.198,1.763
								c-0.634-0.324-0.97-0.891-1.157-1.481C241.15,318.494,241.126,317.836,241.483,317.222z"/>
						</g>
						<g>
							<path d="M237.354,319.188c0.46,0.482,0.667,0.923,0.863,1.389c0.169,0.476,0.31,0.942,0.29,1.609
								c-0.637-0.22-1.004-0.718-1.223-1.25C237.092,320.392,237.031,319.778,237.354,319.188z"/>
						</g>
						<g>
							<path d="M234.491,320.444c0.5,0.512,0.725,1.042,0.915,1.594c0.16,0.56,0.275,1.125,0.153,1.831
								c-0.605-0.391-0.91-0.951-1.107-1.534C234.284,321.742,234.217,321.108,234.491,320.444z"/>
						</g>
						<g>
							<path d="M229.978,322.607c0.614,0.388,0.95,0.905,1.222,1.452c0.243,0.56,0.418,1.151,0.315,1.871
								c-0.616-0.388-0.952-0.904-1.222-1.452C230.052,323.917,229.876,323.326,229.978,322.607z"/>
						</g>
						<g>
							<path d="M227.391,324.312c0.529,0.421,0.795,0.856,1.044,1.318c0.222,0.475,0.409,0.949,0.426,1.626
								c-0.652-0.201-1.049-0.668-1.32-1.18C227.296,325.551,227.162,324.953,227.391,324.312z"/>
						</g>
						<g>
							<path d="M222.104,326.612c0.473,0.514,0.733,0.928,1.018,1.366c0.266,0.449,0.52,0.866,0.767,1.521
								c-0.713-0.005-1.272-0.455-1.617-0.995C221.945,327.951,221.792,327.251,222.104,326.612z"/>
						</g>
						<g>
							<path d="M219.406,328.257c0.481,0.558,0.734,1.054,1,1.572c0.242,0.529,0.473,1.036,0.609,1.761
								c-0.723-0.187-1.207-0.728-1.509-1.326C219.227,329.653,219.105,328.939,219.406,328.257z"/>
						</g>
						<g>
							<path d="M214.594,331.215c0.54,0.293,0.796,0.699,0.986,1.132c0.16,0.444,0.251,0.915,0.056,1.499
								c-0.542-0.292-0.798-0.698-0.985-1.132C214.492,332.27,214.401,331.799,214.594,331.215z"/>
						</g>
						<g>
							<path d="M211.501,332.869c0.563,0.352,0.841,0.816,1.053,1.307c0.183,0.502,0.296,1.031,0.124,1.674
								c-0.565-0.351-0.844-0.815-1.053-1.307C211.444,334.04,211.33,333.51,211.501,332.869z"/>
						</g>
						<g>
							<path d="M208.079,335.04c0.433,0.538,0.616,1.026,0.786,1.536c0.142,0.519,0.258,1.026,0.192,1.715
								c-0.629-0.304-0.963-0.853-1.149-1.427C207.75,336.283,207.725,335.641,208.079,335.04z"/>
						</g>
						<g>
							<path d="M204.836,337.111c0.534,0.443,0.774,0.97,0.945,1.515c0.141,0.554,0.21,1.128-0.016,1.786
								c-0.536-0.443-0.777-0.969-0.946-1.515C204.681,338.342,204.611,337.768,204.836,337.111z"/>
						</g>
					</g>
				</g>
				<path style="fill:#FFA3A6;" d="M271.086,551.77c17.494-55.12,19.066-115.194,5.194-170.998
					c-2.473-9.617-4.012-12.889-12.569-21.214c-1.959-1.905-11.072-8.819-11.146-11.551c-0.233-8.512,3.615-19.68-0.541-27.659
					c-0.714-1.372-1.757-2.79-3.286-3.023c-1.419-0.217-2.816,0.715-3.582,1.93c-0.914,1.448-11.564,18.47-9.043,29.634
					c-4.349-4.739-2.793-11.283-3.299-17.695c-0.545-6.897-0.779-14.157-4.749-19.948c-0.609-0.889-1.55-1.549-2.625-1.631
					c-2.055-0.157-2.861,1.584-3.399,3.14c-3.33,9.637-3.964,25.306-1.902,35.397c-4.307-7.023-6.996-20.094-7.991-28.246
					c-0.169-1.387-0.887-2.684-2.078-3.416c-2.872-1.766-5.403,1.228-5.944,3.991c-0.469,2.398-0.169,4.998-1.109,8.02l-2.671-1.414
					c-1.063-0.563-2.382-0.069-2.813,1.054c-1.37,3.572-2.27,7.384-2.753,11.58c-0.708,6.144,1.336,12.288,5.597,16.772
					c10.651,11.208,22.605,21.268,35.769,30.211c6.925,4.704,11.034,12.589,10.911,20.96
					c-0.745,51.058-11.976,101.952-32.859,148.553L271.086,551.77z"/>
				<g>
					<g>
						<path d="M203.018,328.502c-0.322,1.666-0.538,3.341-0.582,5.023c-0.075,1.678-0.02,3.359,0.167,5.022
							c0.378,3.322,1.172,6.6,2.548,9.631c1.35,3.049,3.204,5.862,5.219,8.554c1.007,1.349,2.074,2.658,3.163,3.95l3.258,3.9
							c-1.24-1.159-2.43-2.364-3.624-3.572c-1.168-1.231-2.309-2.492-3.402-3.8c-2.183-2.613-4.112-5.483-5.528-8.624
							c-1.403-3.15-2.196-6.555-2.399-9.974C201.634,335.196,201.959,331.733,203.018,328.502z"/>
					</g>
					<g>
						<path d="M220.024,347.961c0.858,1.236,1.652,2.382,2.503,3.534c0.833,1.162,1.7,2.283,2.509,3.556
							c-1.351-0.693-2.426-1.774-3.317-2.968C220.861,350.874,220.143,349.483,220.024,347.961z"/>
					</g>
					<g>
						<path d="M236.113,348.89c1.04,0.999,1.816,2.152,2.531,3.341c0.687,1.205,1.31,2.448,1.668,3.845
							c-1.042-0.998-1.818-2.151-2.531-3.341C237.095,351.529,236.472,350.287,236.113,348.89z"/>
					</g>
				</g>
			</g>
			<g>
				<path style="fill:#FFA3A6;" d="M406.454,337.645c-4.15-6.779-0.684,1.643-6.599-3.666c-1.458-1.309-8.38-6.671-10.339-6.723
					c-4.533-0.122-16.822,30.354-15.664,32.846c0.85,1.829,2.553,3.377,4.564,3.532c2.363,0.183,4.487-1.551,5.752-3.556
					c1.265-2.005,2.31-5.746,3.482-7.806c1.004,1.247,2.834,2.858,4.251,2.111c1.417-0.746,3.96-1.885,4.479-3.4
					c2.47,5.165,1.091,10.908-0.542,16.395c3.348,0.174,5.979-2.81,7.591-5.75C407.387,354.406,410.794,344.732,406.454,337.645z"/>
				<g>
					<g>
						<path d="M398.137,348.892c-1.446-0.3-2.745-0.82-4.06-1.258c-0.651-0.234-1.304-0.446-1.959-0.644
							c-0.662-0.186-1.315-0.347-2.052-0.392c0.654-0.369,1.452-0.433,2.186-0.377c0.745,0.052,1.462,0.239,2.154,0.469
							C395.779,347.184,397.055,347.892,398.137,348.892z"/>
					</g>
					<g>
						<path d="M392.457,341.392c-0.379,1.002-0.825,1.949-1.255,2.9l-1.284,2.836c-0.431,0.941-0.819,1.896-1.212,2.856
							c-0.397,0.956-0.713,1.959-1.225,2.911c0.108-1.053,0.213-2.113,0.482-3.15c0.251-1.038,0.614-2.047,1.042-3.022
							C389.886,344.784,391.005,342.957,392.457,341.392z"/>
					</g>
				</g>
				<path style="fill:#FFA3A6;" d="M486.529,545.481c-28.01-46.582-54.1-94.319-77.083-143.4
					c-2.447-7.428,3.582-14.615,7.045-21.627c5.644-11.43,6.593-15.551,2.018-27.45c-4.575-11.898-14.346-31.982-21.983-42.189
					c-1.262-1.687-2.633-3.457-4.61-4.186c-1.976-0.729-4.686,0.143-5.102,2.208c-0.348,1.732,0.967,3.3,2.067,4.682
					c7.345,9.225,6.61,18.769,7.153,30.548c0.196,4.262,1.971,11.706,0.836,15.819c-1.134,4.113-3.832,8.03-7.83,9.518
					c-7.388,2.751-15.001-3.615-19.292-10.229c-4.291-6.614-7.913-14.559-15.197-17.575c-2.01-0.832-4.857-0.925-5.821,1.025
					c-0.632,1.279-0.102,2.8,0.432,4.123c4,9.904,8,19.809,12,29.713c4.532,11.221,9.298,22.798,20.324,32.289
					c11.945,60.032,23.89,120.063,35.835,180.095c0.356,1.791,0.757,3.674,1.97,5.04c2.491,2.804,6.992,2.127,10.56,0.97
					C455.114,586.663,475.668,565.239,486.529,545.481z"/>
				<g>
					<path d="M393.366,321.249c1.045,3.08,1.77,6.264,2.35,9.466c0.591,3.203,0.969,6.441,1.235,9.684
						c0.247,3.245,0.397,6.496,0.382,9.749c-0.01,3.251-0.099,6.506-0.462,9.738c-0.029-1.625-0.053-3.245-0.123-4.865
						c-0.043-1.62-0.095-3.238-0.184-4.855c-0.166-3.233-0.342-6.464-0.61-9.687c-0.24-3.225-0.59-6.439-0.996-9.647
						c-0.188-1.607-0.444-3.204-0.717-4.799c-0.138-0.797-0.251-1.601-0.41-2.395C393.666,322.846,393.512,322.049,393.366,321.249z
						"/>
				</g>
				<g>
					
						<ellipse transform="matrix(0.9815 -0.1913 0.1913 0.9815 -56.4565 77.5906)" style="fill:#A8D9C2;" cx="373.692" cy="331.241" rx="23.654" ry="23.654"/>
					<g>
						<defs>
							
								<ellipse id="SVGID_00000138539398444676887560000010844477485905647516_" transform="matrix(0.9815 -0.1913 0.1913 0.9815 -56.4565 77.5906)" cx="373.692" cy="331.241" rx="23.654" ry="23.654"/>
						</defs>
						<clipPath id="SVGID_00000167383268578942470760000004342805821177003960_">
							<use xlink:href="#SVGID_00000138539398444676887560000010844477485905647516_"  style="overflow:visible;"/>
						</clipPath>
						
							<path style="clip-path:url(#SVGID_00000167383268578942470760000004342805821177003960_);fill:none;stroke:#E4F0F6;stroke-linecap:round;stroke-linejoin:round;stroke-miterlimit:10;" d="
							M399.496,344.965c-3.193-5.48-8.807-9.488-15.027-10.729c-6.22-1.24-12.942,0.308-17.993,4.144
							c-5.948,4.517-9.239,11.619-12.304,18.43"/>
						
							<path style="clip-path:url(#SVGID_00000167383268578942470760000004342805821177003960_);fill:none;stroke:#E4F0F6;stroke-linecap:round;stroke-linejoin:round;stroke-miterlimit:10;" d="
							M391.266,308.103c-6.141,1.595-12.347,3.199-18.69,3.372c-6.343,0.172-12.928-1.213-17.965-5.072"/>
					</g>
				</g>
			</g>
			<g>
				<path style="fill:#FFA3A6;" d="M558.594,344.461c-21.359-22.909-42.718-45.818-66.487-67.937
					c-8.604,12.329-20.386,22.42-35.505,31.626c21.95,38.941,45.527,76.965,70.648,113.94c7.634-13.328,15.267-26.656,22.901-39.984
					c3.607-6.297,7.25-12.682,9.14-19.688C561.18,355.411,561.351,347.418,558.594,344.461z"/>
				<g>
					<path style="fill:#6780D3;" d="M503.939,283.176c-2.916-11.582-8.936-22.421-18.355-31.334c-1.085-1.027-2.78-1.047-3.89-0.054
						c-13.815,12.37-30.299,21.902-48.597,28.618c-1.645,0.604-2.32,2.553-1.401,4.032c6.4,10.29,13.508,20.206,20.951,30.367
						c0.658,0.898,1.797,1.346,2.891,1.103c17.994-4.007,34.376-14.996,47.794-30.26
						C503.926,284.973,504.158,284.046,503.939,283.176z"/>
					<path style="fill:#6780D3;" d="M480.924,255.728c-6.543-27.913-21.471-53.394-40.254-75.054
						c-5.387-6.212-11.527-12.404-19.475-14.509c-5.631-1.491-11.614-0.752-17.25,0.796c-11.112,3.052-21.324,8.879-29.598,16.9
						c-6.632,6.429-12.404,14.367-14.776,23.415c-1.903,7.258-1.471,15.279,2.092,21.882c3.563,6.603,11.782,10.196,18.945,12.036
						c1.971,0.083,11.809,3.349,11.441-5.485c-0.024-0.581,3.987,4.36,5.627,7.29c1.64,2.931,0.909,3.851-9.308,1.895
						c-3.684-0.705-20.152,0.612-14.673,12.618c1.094,2.397,3.019,4.296,5.256,5.69c9.452,5.892,21.265,4.587,31.922,7.271
						c7.24,1.823,13.99,5.555,19.383,10.717c1.166,1.116,2.317,2.329,3.815,2.931c1.984,0.797,4.222,0.389,6.319-0.03
						c6.993-1.398,14.032-2.81,20.652-5.459c6.621-2.65,12.871-6.64,17.269-12.12c0.38-1.91,1.279-3.669,1.98-5.485
						C480.992,259.211,481.29,257.288,480.924,255.728z"/>
					<path style="fill:#D4D5D8;" d="M481.61,258.641c-8.043,7.437-16.587,14.334-25.553,20.628c-1.06,0.744-1.295,2.21-0.503,3.235
						c3.221,4.169,10.926,14.123,13.941,17.845c0.686,0.847,1.883,1.1,2.839,0.577c9.561-5.23,18.139-12.253,25.153-20.594
						c0.649-0.772,0.694-1.889,0.128-2.724l-12.587-18.583C484.248,257.873,482.631,257.696,481.61,258.641z"/>
					<g>
						<g>
							<path d="M360.264,223.574c-0.481-0.771-0.612-1.737-0.413-2.635c0.203-0.894,0.66-1.732,1.292-2.403
								c0.618-0.685,1.44-1.198,2.327-1.477c0.888-0.275,1.825-0.374,2.749-0.327c1.851,0.108,3.629,0.674,5.3,1.376l1.264,0.517
								l1.231,0.591c0.832,0.374,1.613,0.844,2.413,1.279c6.32,3.685,11.478,9.005,16.014,14.628
								c4.508,5.687,8.398,11.785,12.604,17.629c4.182,5.849,8.759,11.475,14.38,16.033c-2.935-2.107-5.599-4.582-8.092-7.205
								c-2.467-2.652-4.726-5.488-6.908-8.372c-4.354-5.777-8.237-11.878-12.764-17.461c-4.437-5.63-9.517-10.843-15.625-14.593
								c-0.774-0.445-1.53-0.928-2.336-1.315l-1.194-0.611l-1.228-0.538c-1.628-0.736-3.335-1.314-5.091-1.47
								c-1.732-0.164-3.613,0.204-4.854,1.5c-0.63,0.614-1.101,1.401-1.336,2.255C359.758,221.829,359.827,222.776,360.264,223.574z
								"/>
						</g>
						<g>
							<path d="M474.412,241.447c-2.389,3.262-5.058,6.319-7.906,9.201c-2.847,2.885-5.922,5.54-9.107,8.049
								c-3.234,2.445-6.585,4.742-10.097,6.765l-2.658,1.471l-2.699,1.391l-2.755,1.273c-0.928,0.401-1.861,0.792-2.796,1.173
								c0.89-0.48,1.783-0.951,2.679-1.411l2.643-1.469l2.617-1.507l2.572-1.579c3.402-2.144,6.726-4.412,9.884-6.898
								c3.208-2.422,6.243-5.062,9.183-7.807C468.912,247.352,471.705,244.447,474.412,241.447z"/>
						</g>
						<g>
							<path d="M432.895,278.027c3.264-1.176,6.482-2.439,9.623-3.869c3.135-1.439,6.217-2.989,9.201-4.711
								c2.996-1.702,5.893-3.574,8.721-5.548l2.102-1.512l2.059-1.573l2.041-1.602c0.661-0.557,1.332-1.106,2.009-1.65
								c-1.192,1.262-2.461,2.447-3.737,3.629l-1.983,1.693l-2.034,1.634c-2.746,2.139-5.664,4.057-8.682,5.797
								c-3.029,1.719-6.16,3.264-9.397,4.548C439.589,276.156,436.278,277.246,432.895,278.027z"/>
						</g>
						<g>
							<path d="M480.371,252.333c-3.129,3.545-6.542,6.843-10.165,9.899c-3.621,3.059-7.494,5.818-11.497,8.36
								c-4.046,2.474-8.224,4.733-12.535,6.697c-2.161,0.97-4.34,1.894-6.537,2.77c-2.215,0.834-4.431,1.655-6.68,2.385l3.257-1.397
								l3.233-1.441c2.152-0.965,4.287-1.964,6.396-3.012c4.218-2.095,8.365-4.33,12.337-6.85c4.015-2.451,7.843-5.196,11.542-8.106
								C473.421,258.726,476.946,255.59,480.371,252.333z"/>
						</g>
						<g>
							<path d="M377.382,226.622c3.683,0.755,7.174,2.419,10.247,4.617c3.059,2.218,5.743,5.004,7.622,8.261
								c-2.515-2.78-5.209-5.304-8.206-7.45C384.063,229.884,380.816,228.126,377.382,226.622z"/>
						</g>
					</g>
				</g>
			</g>
			<g>
				<path style="fill:#FFA3A6;" d="M102.387,451.91c-5.917,11.715-7.669,26.674-14.226,47.428
					c-4.91,15.538-3.024,30.871-1.515,46.245c-8.478,5.301-22.374,5.872-32.334,4.989c-9.96-0.883-19.596-5.094-27.784-12.66
					c8.469-6.314,11.682-12.406,15.774-22.145c4.092-9.739,8.318-28.151,10.627-38.46c3.249-14.506,7.404-24.275,6.604-39.119
					c8.643-10.098,18.51-19.147,29.316-26.886c4.003-2.867,8.397-5.646,13.315-5.903c6.827-0.358,13.344,4.72,15.37,11.249
					c2.026,6.529-0.147,13.982-4.643,21.687C109.218,442.658,105.003,446.73,102.387,451.91z"/>
				<g>
					<path style="fill:#00BCAD;" d="M99.484,460.336c0.891,2.267,3.506,3.298,5.774,2.407c12.299-4.831,22.864-13.15,31.626-23.331
						c10.595-12.312,18.258-26.869,24.791-41.74c2.548-5.801,4.986-11.954,4.447-18.267c-0.539-6.313-5.012-12.744-11.627-13.82
						c0.735-3,1.389-6.072,1.171-9.153c-0.217-3.081-1.413-6.215-3.812-8.162c-2.398-1.947-6.114-2.392-9.102-0.699
						c0.497-2.773,0.548-5.685-0.348-8.356c-0.896-2.671-2.833-5.076-5.46-6.096c-2.626-1.02-5.922-0.42-8.136,1.263
						c-0.531-3.866-2.268-7.698-5.368-10.068c-3.101-2.369-7.678-2.965-11.777-2.021c-3.933-4.307-10.818-4.364-16.374-4.025
						c-5.6,0.342-11.165,1.13-16.616,2.456c-6.641,1.616-13.727,4.158-17.807,9.738c-3.033,4.149-3.993,9.415-4.817,14.488
						c-4.32,26.594-7.184,53.588-5.367,80.469c0.422,6.239,1.359,13.025,8.293,16.803c1.535-1.708,4.09-2.182,6.35-1.772
						c2.259,0.41,4.303,1.566,6.297,2.705c8.523,4.866,17.045,9.731,25.568,14.596c0.835,0.477,1.546,1.156,2.012,1.997
						C99.308,459.939,99.405,460.134,99.484,460.336z"/>
					<g>
						<g>
							<path d="M154.659,364.906c-2.775,3.074-5.486,6.193-8.066,9.415c-2.577,3.223-5.08,6.503-7.393,9.918
								c-2.379,3.368-4.572,6.864-6.679,10.412l-1.559,2.675l-1.501,2.71l-1.478,2.726c-0.468,0.921-0.948,1.838-1.436,2.752
								c0.761-1.927,1.617-3.814,2.478-5.701l1.382-2.786l1.446-2.755c1.98-3.648,4.196-7.165,6.527-10.601
								c2.397-3.389,4.907-6.704,7.626-9.839C148.721,370.694,151.59,367.69,154.659,364.906z"/>
						</g>
						<g>
							<path d="M142.754,347.571c-2.148,3.292-4.355,6.538-6.564,9.783l-6.702,9.683c-2.294,3.186-4.553,6.398-6.893,9.552
								l-3.537,4.712c-1.213,1.546-2.404,3.107-3.652,4.627c1.065-1.653,2.176-3.271,3.254-4.913l3.308-4.871l6.704-9.682
								c2.296-3.184,4.552-6.398,6.895-9.551C137.906,353.757,140.272,350.621,142.754,347.571z"/>
						</g>
						<g>
							<path d="M128.809,334.383c-2.046,4.362-4.539,8.5-7.092,12.579c-2.563,4.078-5.286,8.048-7.999,12.022
								c-2.783,3.926-5.562,7.852-8.411,11.726l-4.284,5.804l-4.325,5.776c2.548-4.085,5.266-8.057,7.982-12.026l8.219-11.852
								c2.778-3.922,5.484-7.892,8.177-11.869c1.352-1.985,2.679-3.987,3.964-6.016
								C126.367,338.524,127.587,336.458,128.809,334.383z"/>
						</g>
						<g>
							<path d="M112.583,322.427c-1.173,2.293-2.708,4.38-4.215,6.461c-1.534,2.067-3.14,4.076-4.751,6.082
								c-3.245,3.992-6.657,7.842-10.084,11.675c-3.491,3.775-6.997,7.537-10.634,11.172c-1.827,1.808-3.646,3.625-5.507,5.398
								c-1.869,1.765-3.749,3.518-5.667,5.229l5.32-5.576c1.789-1.841,3.544-3.716,5.301-5.586
								c3.516-3.74,7.021-7.489,10.447-11.309c3.482-3.769,6.875-7.62,10.237-11.495c1.678-1.94,3.345-3.891,4.953-5.888
								C109.618,326.612,111.217,324.604,112.583,322.427z"/>
						</g>
						<g>
							<path d="M71.55,332.02c-2.244,8.801,0.671,17.658,0.25,26.609c-0.016,8.926-0.913,17.823-0.317,26.668
								c0.265,4.414,0.907,8.812,2.188,13.035c0.618,2.112,1.465,4.172,2.165,6.306c0.706,2.125,1.273,4.357,1.296,6.648
								c0.067,4.579-1.771,9.035-4.713,12.433c-2.981,3.391-6.975,5.771-11.232,7.056c4.182-1.497,8.066-3.95,10.858-7.373
								c2.797-3.377,4.477-7.736,4.319-12.097c-0.162-4.386-2.245-8.419-3.562-12.707c-1.335-4.299-2.02-8.77-2.315-13.238
								c-0.518-8.96,0.37-17.863,0.548-26.74c0.119-4.447-0.057-8.869-0.53-13.304c-0.171-2.228-0.245-4.471-0.065-6.702
								C70.585,336.376,71.123,334.202,71.55,332.02z"/>
						</g>
						<g>
							<path d="M90.882,385.428c3.124,3.03,6.273,6.02,9.512,8.909c3.24,2.886,6.521,5.724,9.929,8.406
								c3.358,2.745,6.837,5.336,10.358,7.872c1.76,1.269,3.541,2.508,5.339,3.728l2.697,1.83c0.912,0.59,1.818,1.191,2.721,1.8
								c-1.925-1.017-3.802-2.118-5.682-3.218c-1.855-1.139-3.691-2.311-5.512-3.508c-3.627-2.416-7.121-5.028-10.545-7.725
								c-3.373-2.76-6.682-5.603-9.824-8.623C96.73,391.881,93.706,388.741,90.882,385.428z"/>
						</g>
						<g>
							<path d="M68.466,427.358c1.781-0.397,3.674,0.009,5.342,0.75c1.678,0.772,3.135,1.932,4.488,3.141
								c2.651,2.482,5.219,4.952,8.004,7.224c2.756,2.292,5.656,4.402,8.676,6.334c3.03,1.917,6.214,3.589,9.514,5.055
								c-1.725-0.537-3.407-1.205-5.073-1.919c-1.644-0.758-3.259-1.585-4.839-2.478c-3.152-1.8-6.113-3.922-8.916-6.223
								c-1.386-1.169-2.751-2.363-4.063-3.612c-1.309-1.252-2.578-2.552-3.829-3.825c-1.267-1.255-2.615-2.432-4.18-3.262
								C72.05,427.69,70.272,427.189,68.466,427.358z"/>
						</g>
						<g>
							<path d="M101.661,454.699c1.321,0.598,2.379,1.634,3.201,2.804c0.799,1.186,1.386,2.545,1.468,3.994
								c-0.831-1.179-1.516-2.321-2.292-3.428C103.285,456.946,102.465,455.896,101.661,454.699z"/>
						</g>
						<g>
							<path d="M66.631,352.519c-0.003,3.849-0.248,7.731-1.307,11.508c-0.546,1.877-1.325,3.693-2.328,5.364
								c-0.989,1.68-2.198,3.21-3.527,4.608c1.023-1.638,1.994-3.286,2.842-4.981c0.837-1.7,1.542-3.452,2.053-5.269
								C65.418,360.12,65.847,356.299,66.631,352.519z"/>
						</g>
						<g>
							<path d="M59.453,373.135c0.297,5.151,0.457,10.306,0.566,15.462c0.111,5.156,0.105,10.314,0.112,15.471
								c-0.071,5.157-0.13,10.314-0.306,15.469c-0.117,2.554-0.06,5.219-0.946,7.731c-0.447,1.241-1.17,2.396-2.141,3.282
								c-0.959,0.889-2.209,1.503-3.509,1.541c1.29-0.148,2.445-0.831,3.324-1.731c0.885-0.909,1.504-2.043,1.861-3.247
								c0.753-2.421,0.62-5.017,0.641-7.589l0.076-15.461l0.121-15.461l0.07-7.732L59.453,373.135z"/>
						</g>
						<g>
							<path d="M55.793,405.924c-1.508,1.059-2.643,2.357-3.424,3.878c-0.788,1.517-1.192,3.192-1.187,5.035
								c-0.406-0.838-0.546-1.806-0.478-2.753c0.061-0.953,0.345-1.887,0.777-2.741c0.448-0.846,1.047-1.617,1.789-2.217
								C54.005,406.523,54.876,406.078,55.793,405.924z"/>
						</g>
						<g>
							<path d="M55.014,395.131c-1.318,0.946-2.265,2.09-2.904,3.424c-0.643,1.332-0.948,2.783-0.869,4.405
								c-0.436-0.697-0.626-1.547-0.614-2.387c0.004-0.846,0.223-1.685,0.583-2.452c0.377-0.759,0.897-1.453,1.556-1.982
								C53.415,395.606,54.198,395.225,55.014,395.131z"/>
						</g>
						<g>
							<path d="M102.461,320.113c-2.471,1.401-4.989,2.704-7.514,3.991c-2.52,1.298-5.074,2.524-7.628,3.751
								c-2.565,1.205-5.127,2.408-7.73,3.541c-1.306,0.56-2.681,1.101-4.147,1.236c-1.444,0.097-3.001-0.216-4.055-1.208
								c1.186,0.801,2.654,0.963,3.996,0.721c1.358-0.221,2.63-0.808,3.88-1.446c2.518-1.293,5.074-2.523,7.628-3.747
								c2.565-1.204,5.13-2.407,7.729-3.54C97.212,322.27,99.813,321.142,102.461,320.113z"/>
						</g>
						<g>
							<path d="M75.479,330.36c-0.728-1.025-1.396-1.906-2.202-2.699c-0.793-0.806-1.672-1.475-2.695-2.207
								c1.277-0.029,2.5,0.608,3.402,1.501C74.873,327.861,75.507,329.085,75.479,330.36z"/>
						</g>
						<g>
							<path d="M78.461,327.959c-0.675-0.732-1.296-1.476-1.922-2.211l-0.942-1.094c-0.162-0.179-0.309-0.373-0.449-0.501
								c-0.07-0.065-0.138-0.119-0.202-0.156c-0.032-0.018-0.063-0.034-0.094-0.045c-0.001-0.028-0.12,0.025,0.178-0.02
								c0.037-0.012,0.192-0.087,0.243-0.209c0.052-0.132,0.043-0.109,0.051-0.176c-0.013-0.131-0.003-0.059-0.007-0.083
								c-0.011-0.012,0.027,0.055,0.036,0.08c0.049,0.085,0.1,0.174,0.167,0.269c0.123,0.187,0.268,0.375,0.409,0.566l0.864,1.157
								c0.294,0.386,0.576,0.784,0.861,1.181l0.207,0.305c0.059,0.089,0.109,0.171,0.159,0.272
								C78.114,327.487,78.259,327.74,78.461,327.959z M78.461,327.959c-0.128-0.14-0.313-0.245-0.55-0.409
								c-0.115-0.078-0.23-0.176-0.337-0.266l-0.284-0.236c-0.372-0.322-0.737-0.652-1.086-0.999
								c-0.357-0.341-0.685-0.706-1.017-1.08c-0.165-0.188-0.317-0.387-0.471-0.6c-0.077-0.102-0.153-0.221-0.228-0.345
								c-0.041-0.086-0.073-0.121-0.117-0.251c-0.017-0.083-0.043-0.067-0.045-0.259c0.014-0.096-0.011-0.11,0.066-0.263
								c0.072-0.141,0.239-0.253,0.311-0.263c0.418-0.075,0.42,0.033,0.53,0.048c0.083,0.035,0.159,0.077,0.231,0.122
								c0.144,0.091,0.263,0.195,0.367,0.299c0.207,0.214,0.356,0.41,0.502,0.607c0.288,0.402,0.58,0.802,0.834,1.227
								C77.688,326.131,78.141,327.015,78.461,327.959z"/>
						</g>
						<g>
							<path d="M83.266,325.974c-0.621-1.008-1.221-1.826-1.968-2.554c-0.738-0.737-1.562-1.327-2.577-1.938
								c1.197-0.174,2.419,0.384,3.279,1.227C82.852,323.561,83.423,324.775,83.266,325.974z"/>
						</g>
						<g>
							<path d="M88.534,324.323c-0.656-1.047-1.237-1.966-1.95-2.82c-0.698-0.868-1.481-1.619-2.376-2.472
								c1.246,0.134,2.357,0.884,3.15,1.84C88.135,321.839,88.648,323.075,88.534,324.323z"/>
						</g>
						<g>
							<path d="M52.468,344.242c0.47-1.337,1.275-2.594,2.321-3.596c1.029-1.026,2.252-1.843,3.576-2.459
								c0.338-0.143,0.677-0.281,1.04-0.391c0.182-0.057,0.359-0.107,0.583-0.144c0.227-0.032,0.507-0.051,0.81,0.111
								c0.308,0.155,0.509,0.537,0.495,0.827c0.003,0.297-0.094,0.54-0.218,0.743c-0.139,0.205-0.258,0.363-0.49,0.509
								c-0.171,0.147-0.594,0.269-0.91,0.076c-0.321-0.191-0.396-0.475-0.441-0.697c-0.037-0.232-0.024-0.452,0.029-0.654
								c0.097-0.407,0.303-0.763,0.572-1.042c0.542-0.559,1.249-0.856,1.952-0.949c-0.637,0.306-1.239,0.691-1.568,1.253
								c-0.18,0.261-0.291,0.561-0.31,0.847c-0.042,0.263,0.088,0.607,0.134,0.554c-0.093,0.017,0.175-0.114,0.277-0.339
								c0.053-0.099,0.072-0.203,0.064-0.258c-0.012-0.064-0.019-0.024-0.024-0.031c-0.025-0.037-0.348,0.011-0.657,0.125
								c-0.309,0.1-0.619,0.236-0.926,0.372c-1.233,0.553-2.401,1.28-3.469,2.127C54.237,342.076,53.286,343.08,52.468,344.242z"/>
						</g>
						<g>
							<path d="M45.48,379.629c0.47-1.337,1.275-2.594,2.321-3.597c1.029-1.026,2.252-1.843,3.576-2.459
								c0.338-0.143,0.677-0.281,1.04-0.391c0.182-0.057,0.359-0.107,0.583-0.144c0.227-0.031,0.507-0.051,0.81,0.111
								c0.308,0.155,0.509,0.537,0.495,0.827c0.003,0.297-0.094,0.54-0.218,0.743c-0.139,0.205-0.258,0.363-0.49,0.509
								c-0.17,0.147-0.594,0.269-0.91,0.076c-0.321-0.191-0.396-0.475-0.441-0.697c-0.037-0.232-0.024-0.452,0.029-0.654
								c0.097-0.407,0.303-0.763,0.572-1.041c0.542-0.559,1.249-0.856,1.952-0.949c-0.637,0.306-1.239,0.692-1.568,1.253
								c-0.18,0.261-0.291,0.561-0.31,0.847c-0.042,0.263,0.088,0.607,0.134,0.554c-0.093,0.017,0.175-0.114,0.277-0.339
								c0.053-0.099,0.072-0.203,0.064-0.258c-0.013-0.064-0.019-0.024-0.024-0.031c-0.026-0.037-0.348,0.011-0.657,0.125
								c-0.309,0.1-0.619,0.236-0.926,0.372c-1.233,0.553-2.4,1.28-3.469,2.127C47.249,377.464,46.297,378.467,45.48,379.629z"/>
						</g>
						<g>
							<path d="M46.396,433.13c0.47-1.337,1.275-2.594,2.321-3.596c1.029-1.026,2.252-1.843,3.576-2.459
								c0.338-0.143,0.677-0.281,1.04-0.391c0.182-0.057,0.359-0.107,0.583-0.144c0.227-0.031,0.507-0.051,0.81,0.112
								c0.308,0.154,0.509,0.537,0.495,0.827c0.003,0.297-0.094,0.54-0.218,0.743c-0.139,0.205-0.258,0.362-0.49,0.509
								c-0.17,0.147-0.594,0.269-0.91,0.076c-0.321-0.191-0.396-0.475-0.441-0.697c-0.037-0.232-0.024-0.452,0.029-0.654
								c0.097-0.407,0.303-0.763,0.572-1.042c0.542-0.559,1.249-0.856,1.952-0.949c-0.637,0.306-1.239,0.691-1.568,1.253
								c-0.18,0.261-0.291,0.561-0.31,0.847c-0.042,0.263,0.088,0.607,0.134,0.554c-0.093,0.017,0.175-0.114,0.277-0.339
								c0.053-0.099,0.072-0.203,0.064-0.258c-0.013-0.064-0.019-0.024-0.024-0.031c-0.026-0.037-0.348,0.011-0.657,0.125
								c-0.309,0.1-0.619,0.236-0.926,0.372c-1.233,0.553-2.401,1.28-3.469,2.127C48.166,430.965,47.214,431.968,46.396,433.13z"/>
						</g>
						<g>
							<path d="M135.279,417.427c-0.538,1.017-1.077,2.039-1.644,3.047l-1.915,2.894l-2.147,2.729l-2.301,2.601
								c-3.159,3.388-6.652,6.424-10.08,9.495c-3.482,3.012-6.921,6.058-10.114,9.346c-0.791,0.827-1.554,1.681-2.334,2.521
								c-0.74,0.872-1.446,1.774-2.176,2.658l-2.007,2.794l-1.774,2.96c0.506-1.033,1.011-2.072,1.548-3.097
								c0.612-0.978,1.208-1.971,1.837-2.945c0.694-0.925,1.376-1.863,2.089-2.776c0.752-0.879,1.49-1.773,2.257-2.641
								c3.113-3.435,6.586-6.499,10.016-9.57c3.486-3.011,6.944-6.037,10.188-9.277C129.959,424.927,132.94,421.406,135.279,417.427
								z"/>
						</g>
					</g>
					<g>
						
							<ellipse transform="matrix(0.1146 -0.9934 0.9934 0.1146 -306.5714 437.1231)" style="fill:#FFFFFF;" cx="91.93" cy="390.541" rx="19.664" ry="19.683"/>
						<g>
							<defs>
								
									<ellipse id="SVGID_00000169532961706589780790000017539957226794323628_" transform="matrix(0.1146 -0.9934 0.9934 0.1146 -306.5714 437.1231)" cx="91.93" cy="390.541" rx="19.664" ry="19.683"/>
							</defs>
							<clipPath id="SVGID_00000034069401646567334120000000288105819665398705_">
								<use xlink:href="#SVGID_00000169532961706589780790000017539957226794323628_"  style="overflow:visible;"/>
							</clipPath>
							<g style="clip-path:url(#SVGID_00000034069401646567334120000000288105819665398705_);">
								<g>
									<path style="fill:#001741;" d="M111.235,399.227c-1.179-0.009-2.313-0.506-3.291-1.154
										c-0.989-0.647-1.872-1.431-2.775-2.158c-1.793-1.476-3.668-2.852-5.675-3.986c-2.01-1.12-4.118-2.067-6.344-2.588
										c-2.214-0.537-4.528-0.68-6.753-0.299c-2.221,0.349-4.364,1.261-6.121,2.664c-1.764,1.403-3.037,3.348-3.64,5.527
										c-0.618,2.178-0.583,4.534-0.047,6.764c0.502,2.251,1.519,4.373,2.734,6.362c-1.403-1.865-2.529-3.967-3.208-6.238
										c-0.65-2.274-0.788-4.735-0.224-7.081c0.52-2.364,1.945-4.506,3.809-6.039c1.874-1.535,4.152-2.543,6.534-2.945
										c4.802-0.736,9.66,0.732,13.649,3.214c2.01,1.245,3.86,2.711,5.603,4.276c0.865,0.793,1.684,1.618,2.608,2.311
										C109.015,398.542,110.063,399.108,111.235,399.227z"/>
								</g>
								<g>
									<path style="fill:#001741;" d="M96.542,370.972c-2.07,0.479-4.111,0.999-6.109,1.642c-1.994,0.654-3.962,1.372-5.874,2.224
										c-1.921,0.831-3.782,1.792-5.613,2.818c-0.913,0.517-1.81,1.066-2.696,1.636l-1.331,0.858
										c-0.43,0.305-0.869,0.602-1.315,0.893c0.742-0.763,1.549-1.454,2.359-2.149c0.837-0.658,1.698-1.287,2.578-1.893
										c1.768-1.201,3.662-2.21,5.616-3.079c1.963-0.848,3.989-1.558,6.069-2.046C92.302,371.378,94.416,371.043,96.542,370.972z"
										/>
								</g>
							</g>
							<g style="clip-path:url(#SVGID_00000034069401646567334120000000288105819665398705_);">
								<g>
									<path style="fill:#FFA3A6;" d="M83.561,386.767c0.7,0.365,1.344,0.8,1.965,1.264c0.061,0.046,0.092,0.116,0.091,0.186
										l0,0.014c-0.035,1.138-0.132,2.273-0.417,3.399c-0.168-1.149-0.147-2.288-0.064-3.424l0.09,0.201
										C84.636,387.904,84.07,387.371,83.561,386.767z"/>
								</g>
								<g>
									<path style="fill:#FFA3A6;" d="M80.926,387.815c0.974,0.25,1.863,0.608,2.743,1.004l0.011,0.005
										c0.105,0.047,0.162,0.158,0.146,0.266l-0.233,1.569c-0.082,0.525-0.145,1.053-0.247,1.589
										c-0.116-0.534-0.146-1.076-0.149-1.618c-0.001-0.542,0.051-1.084,0.14-1.618l0.156,0.271
										C82.603,388.853,81.722,388.388,80.926,387.815z"/>
								</g>
								<g>
									<path style="fill:#FFA3A6;" d="M79.011,388.83c0.506,0.122,0.98,0.308,1.456,0.491c0.468,0.198,0.931,0.407,1.379,0.645
										l0.011,0.006c0.078,0.041,0.123,0.12,0.124,0.202c0.015,0.79-0.007,1.581-0.141,2.378
										c-0.203-0.782-0.293-1.568-0.347-2.357l0.135,0.208c-0.46-0.214-0.907-0.456-1.347-0.709
										C79.849,389.425,79.414,389.159,79.011,388.83z"/>
								</g>
								<g>
									<path style="fill:#FFA3A6;" d="M77.642,390.096c0.787,0.29,1.535,0.571,2.306,0.79c0.085,0.024,0.146,0.092,0.165,0.172
										l0.003,0.011c0.117,0.488,0.208,0.983,0.282,1.48c0.06,0.501,0.123,1.001,0.118,1.516
										c-0.218-0.466-0.368-0.948-0.521-1.428c-0.139-0.484-0.262-0.971-0.358-1.464l0.167,0.182
										C79.006,391.09,78.247,390.68,77.642,390.096z"/>
								</g>
								<g>
									<path style="fill:#FFA3A6;" d="M75.979,392.145c0.717,0.009,1.415,0.1,2.106,0.226c0.077,0.014,0.138,0.067,0.166,0.134
										l0.006,0.015c0.404,0.998,0.748,2.018,0.912,3.107c-0.594-0.926-1.007-1.921-1.361-2.938l0.172,0.15
										C77.301,392.659,76.631,392.443,75.979,392.145z"/>
								</g>
								<g>
									<path style="fill:#FFA3A6;" d="M75.07,393.875c0.56-0.039,1.108-0.006,1.652,0.049c0.06,0.006,0.11,0.038,0.141,0.084
										l0.016,0.023c0.292,0.431,0.56,0.876,0.798,1.34c0.233,0.466,0.453,0.94,0.61,1.452c-0.378-0.38-0.692-0.797-0.993-1.223
										c-0.296-0.429-0.562-0.875-0.805-1.336l0.157,0.107C76.115,394.246,75.586,394.096,75.07,393.875z"/>
								</g>
								<g>
									<path style="fill:#FFA3A6;" d="M74.636,395.991c0.34-0.256,0.795-0.347,1.238-0.299c0.035,0.004,0.066,0.019,0.09,0.042
										l0.029,0.028c0.333,0.321,0.632,0.671,0.914,1.037c0.275,0.371,0.531,0.759,0.732,1.195
										c-0.403-0.261-0.75-0.57-1.078-0.895c-0.321-0.331-0.625-0.678-0.895-1.053l0.119,0.07
										C75.437,395.998,75.055,395.968,74.636,395.991z"/>
								</g>
								<g>
									<path style="fill:#FFA3A6;" d="M74.453,398.331c0.256-0.271,0.613-0.427,0.988-0.505c0.037-0.008,0.073,0,0.103,0.018
										l0.039,0.024c0.386,0.234,0.746,0.502,1.089,0.792c0.339,0.296,0.659,0.617,0.935,0.996
										c-0.441-0.161-0.837-0.381-1.215-0.625c-0.373-0.251-0.73-0.523-1.061-0.83l0.142,0.041
										C75.147,398.22,74.815,398.267,74.453,398.331z"/>
								</g>
								<g>
									<path style="fill:#FFA3A6;" d="M74.54,401.129c0.245-0.419,0.654-0.72,1.103-0.897c0.058-0.023,0.12-0.019,0.172,0.005
										l0.022,0.01c0.272,0.126,0.528,0.284,0.779,0.45c0.242,0.184,0.486,0.363,0.696,0.608c-0.32-0.037-0.605-0.138-0.894-0.235
										c-0.278-0.115-0.552-0.238-0.81-0.393l0.194,0.015C75.391,400.814,74.994,400.967,74.54,401.129z"/>
								</g>
								<g>
									<path style="fill:#FFA3A6;" d="M74.98,403.578c0.259-0.41,0.588-0.728,0.938-1.017c0.066-0.055,0.155-0.066,0.23-0.036
										l0.02,0.008c0.263,0.106,0.513,0.24,0.758,0.386c0.238,0.161,0.477,0.319,0.688,0.541c-0.305-0.013-0.582-0.09-0.859-0.163
										c-0.271-0.088-0.536-0.19-0.789-0.318l0.249-0.028C75.839,403.21,75.444,403.44,74.98,403.578z"/>
								</g>
								<g>
									<path style="fill:#FFA3A6;" d="M75.264,406.189c0.234-0.533,0.575-0.967,0.941-1.377c0.063-0.07,0.16-0.094,0.245-0.072
										c0.272,0.073,0.543,0.151,0.805,0.264c0.263,0.11,0.524,0.226,0.771,0.398c-0.299,0.032-0.584,0.008-0.867-0.022
										c-0.284-0.027-0.559-0.09-0.833-0.157l0.244-0.072C76.187,405.546,75.779,405.917,75.264,406.189z"/>
								</g>
								<g>
									<path style="fill:#FFA3A6;" d="M76.355,408.391c0.135-0.509,0.384-0.936,0.662-1.341c0.061-0.088,0.17-0.123,0.267-0.094
										l0.006,0.002c0.248,0.074,0.493,0.157,0.729,0.271c0.236,0.113,0.471,0.232,0.688,0.409c-0.278,0.029-0.54,0.001-0.8-0.033
										c-0.26-0.032-0.511-0.097-0.759-0.17l0.272-0.093C77.122,407.732,76.796,408.103,76.355,408.391z"/>
								</g>
								<g>
									<path style="fill:#FFA3A6;" d="M77.485,410.316c-0.016-0.481,0.074-0.927,0.198-1.361c0.032-0.112,0.142-0.182,0.255-0.166
										l0.022,0.003c0.284,0.04,0.563,0.111,0.839,0.195c0.273,0.101,0.546,0.198,0.806,0.365
										c-0.303,0.061-0.593,0.051-0.884,0.045c-0.288-0.023-0.573-0.058-0.852-0.125l0.277-0.162
										C77.984,409.532,77.788,409.942,77.485,410.316z"/>
								</g>
								<g>
									<path style="fill:#FFA3A6;" d="M78.548,412.3c-0.027-0.466,0.018-0.914,0.1-1.352c0.021-0.111,0.122-0.187,0.232-0.179
										l0.026,0.002c0.727,0.056,1.446,0.181,2.141,0.501c-0.752,0.143-1.479,0.091-2.199-0.03l0.259-0.177
										C78.971,411.49,78.795,411.904,78.548,412.3z"/>
								</g>
								<g>
									<path style="fill:#FFA3A6;" d="M85.495,385.775c0.847,0.611,1.609,1.305,2.346,2.024c0.054,0.053,0.078,0.126,0.07,0.196
										l-0.001,0.01c-0.074,0.624-0.175,1.245-0.293,1.863c-0.132,0.617-0.261,1.234-0.459,1.841
										c-0.028-0.638,0.012-1.267,0.05-1.896c0.052-0.628,0.12-1.253,0.215-1.874l0.069,0.205
										C86.781,387.398,86.096,386.628,85.495,385.775z"/>
								</g>
								<g>
									<path style="fill:#FFA3A6;" d="M87.903,385.394c0.821,0.76,1.549,1.593,2.249,2.449c0.048,0.058,0.063,0.132,0.048,0.201
										l-0.002,0.009c-0.148,0.663-0.324,1.319-0.515,1.971c-0.205,0.649-0.408,1.299-0.678,1.932
										c0.048-0.687,0.164-1.358,0.277-2.029c0.127-0.668,0.27-1.332,0.44-1.99l0.046,0.209
										C89.097,387.268,88.454,386.368,87.903,385.394z"/>
								</g>
								<g>
									<path style="fill:#FFA3A6;" d="M90.174,385.28c0.741,0.953,1.383,1.977,1.993,3.017c0.036,0.062,0.039,0.134,0.014,0.196
										l-0.006,0.015c-0.275,0.668-0.573,1.326-0.889,1.977c-0.327,0.646-0.652,1.293-1.04,1.912
										c0.18-0.709,0.422-1.391,0.663-2.073c0.252-0.678,0.522-1.348,0.814-2.009l0.008,0.21
										C91.157,387.477,90.617,386.414,90.174,385.28z"/>
								</g>
								<g>
									<path style="fill:#FFA3A6;" d="M92.985,385.838c0.555,0.826,0.953,1.749,1.236,2.702c0.016,0.056,0.011,0.113-0.012,0.162
										l-0.005,0.01c-0.284,0.603-0.596,1.193-0.921,1.776c-0.342,0.575-0.68,1.151-1.083,1.695
										c0.192-0.649,0.45-1.266,0.704-1.884c0.271-0.61,0.554-1.214,0.866-1.803l-0.017,0.172
										C93.52,387.727,93.247,386.798,92.985,385.838z"/>
								</g>
								<g>
									<path style="fill:#FFA3A6;" d="M95.441,386.065c0.168,0.631,0.275,1.267,0.378,1.904c0.101,0.637,0.172,1.277,0.231,1.917
										c0.006,0.06-0.012,0.121-0.045,0.167c-0.692,0.951-1.414,1.88-2.247,2.731c0.53-1.066,1.172-2.052,1.843-3.018
										l-0.045,0.167c-0.062-0.641-0.112-1.282-0.131-1.927C95.407,387.361,95.394,386.716,95.441,386.065z"/>
								</g>
								<g>
									<path style="fill:#FFA3A6;" d="M97.707,387.067c0.236,1.137,0.336,2.28,0.402,3.425c0.003,0.059-0.017,0.117-0.05,0.16
										c-0.378,0.504-0.766,1-1.178,1.479c-0.414,0.477-0.831,0.951-1.297,1.389c0.293-0.568,0.635-1.099,0.98-1.628
										c0.347-0.527,0.718-1.036,1.1-1.538l-0.05,0.16C97.577,389.368,97.575,388.221,97.707,387.067z"/>
								</g>
								<g>
									<path style="fill:#FFA3A6;" d="M99.578,388.026c0.243,1.141,0.342,2.289,0.405,3.438c0.004,0.073-0.026,0.142-0.075,0.19
										c-0.428,0.415-0.861,0.827-1.318,1.212c-0.455,0.388-0.915,0.771-1.416,1.112c0.353-0.493,0.746-0.944,1.144-1.391
										c0.396-0.448,0.817-0.871,1.242-1.29l-0.075,0.189C99.445,390.337,99.44,389.185,99.578,388.026z"/>
								</g>
								<g>
									<path style="fill:#FFA3A6;" d="M101.445,388.617c0.101,0.679,0.138,1.363,0.173,2.049c0.028,0.686,0.031,1.373,0.015,2.058
										c-0.002,0.068-0.033,0.129-0.082,0.17l-0.005,0.004c-0.907,0.742-1.837,1.458-2.849,2.075
										c0.781-0.892,1.645-1.686,2.531-2.453l-0.087,0.173c0.004-0.679,0.026-1.355,0.074-2.034
										C101.268,389.982,101.324,389.302,101.445,388.617z"/>
								</g>
								<g>
									<path style="fill:#FFA3A6;" d="M103.374,389.282c0.019,0.741-0.031,1.473-0.079,2.205c-0.062,0.73-0.14,1.459-0.246,2.184
										l-0.001,0.008c-0.008,0.059-0.039,0.109-0.08,0.145c-0.891,0.755-1.806,1.483-2.797,2.124
										c0.766-0.898,1.608-1.709,2.474-2.493l-0.081,0.152c0.083-0.728,0.195-1.452,0.321-2.174
										C103.027,390.714,103.166,389.993,103.374,389.282z"/>
								</g>
								<g>
									<path style="fill:#FFA3A6;" d="M104.907,390.989c0.032,0.621,0,1.234-0.033,1.847c-0.039,0.612-0.104,1.221-0.186,1.827
										l-0.001,0.005c-0.009,0.068-0.047,0.126-0.099,0.163c-0.873,0.619-1.768,1.21-2.739,1.695
										c0.757-0.778,1.592-1.451,2.447-2.094l-0.099,0.168c0.073-0.608,0.163-1.213,0.278-1.815
										C104.597,392.183,104.72,391.582,104.907,390.989z"/>
								</g>
								<g>
									<path style="fill:#FFA3A6;" d="M106.5,392.07c-0.049,1.217-0.23,2.408-0.447,3.592c-0.013,0.072-0.061,0.132-0.119,0.167
										c-0.568,0.333-1.142,0.655-1.732,0.951c-0.591,0.294-1.183,0.585-1.807,0.822c0.514-0.425,1.06-0.797,1.607-1.165
										c0.549-0.366,1.112-0.707,1.682-1.036l-0.118,0.167C105.81,394.388,106.088,393.216,106.5,392.07z"/>
								</g>
								<g>
									<path style="fill:#FFA3A6;" d="M107.778,393.598c0.012,0.553-0.059,1.097-0.153,1.637c-0.096,0.54-0.242,1.069-0.419,1.587
										c-0.016,0.049-0.049,0.092-0.087,0.12c-0.793,0.57-1.607,1.112-2.502,1.545c0.675-0.73,1.43-1.351,2.207-1.943l-0.087,0.12
										l0.504-1.528C107.416,394.627,107.576,394.112,107.778,393.598z"/>
								</g>
								<g>
									<path style="fill:#FFA3A6;" d="M109.266,394.687c-0.01,0.89-0.133,1.757-0.291,2.617c-0.01,0.056-0.04,0.103-0.08,0.136
										l-0.009,0.007c-0.423,0.347-0.865,0.671-1.316,0.983c-0.461,0.299-0.919,0.602-1.421,0.848
										c0.36-0.428,0.764-0.8,1.165-1.176c0.412-0.362,0.832-0.713,1.271-1.041l-0.089,0.143
										C108.692,396.353,108.923,395.508,109.266,394.687z"/>
								</g>
								<g>
									<path style="fill:#FFA3A6;" d="M110.641,395.871c0.206,0.872,0.165,1.766-0.031,2.652c-0.037,0.23-0.273,0.563-0.531,0.639
										c-0.232,0.083-0.417,0.149-0.635,0.206c-0.419,0.121-0.841,0.235-1.284,0.297c0.367-0.255,0.754-0.459,1.143-0.655
										c0.185-0.105,0.409-0.189,0.576-0.277c0.159-0.082,0.193-0.146,0.248-0.341
										C110.324,397.584,110.459,396.737,110.641,395.871z"/>
								</g>
								<g>
									<path style="fill:#FFA3A6;" d="M81.647,377.774c-0.733-0.22-1.411-0.44-2.116-0.593c-0.132-0.029-0.216-0.16-0.187-0.292
										c0.003-0.013,0.008-0.03,0.013-0.042c0.146-0.365,0.301-0.727,0.486-1.077c0.185-0.35,0.374-0.698,0.62-1.023
										c-0.046,0.405-0.148,0.788-0.255,1.169c-0.106,0.381-0.243,0.75-0.389,1.115l-0.174-0.334
										C80.389,376.882,81.105,377.227,81.647,377.774z"/>
								</g>
								<g>
									<path style="fill:#FFA3A6;" d="M79.526,379.177c-0.362-0.153-0.687-0.354-1.008-0.559
										c-0.321-0.204-0.622-0.434-0.917-0.672c-0.09-0.07-0.115-0.194-0.071-0.294c0.295-0.634,0.621-1.254,1.076-1.817
										c-0.112,0.715-0.35,1.374-0.622,2.018l-0.071-0.294c0.295,0.237,0.584,0.482,0.852,0.752
										C79.033,378.582,79.298,378.856,79.526,379.177z"/>
								</g>
								<g>
									<path style="fill:#FFA3A6;" d="M77.619,380.275c-0.317-0.233-0.67-0.212-1.066-0.384c-0.194-0.079-0.393-0.218-0.519-0.46
										c-0.13-0.256-0.055-0.553,0.01-0.729c0.274-0.707,0.58-1.393,1.028-2.03c-0.08,0.773-0.304,1.497-0.558,2.201
										c-0.067,0.169-0.084,0.272-0.048,0.368c0.03,0.106,0.144,0.213,0.275,0.316C76.993,379.747,77.457,379.891,77.619,380.275z
										"/>
								</g>
								<g>
									<path style="fill:#FFA3A6;" d="M75.565,381.67c-0.564-0.4-1.099-0.751-1.676-1.033c-0.118-0.058-0.168-0.201-0.11-0.319
										l0.007-0.014l0.003-0.005c0.208-0.362,0.441-0.71,0.687-1.049c0.259-0.331,0.514-0.663,0.827-0.954
										c-0.121,0.417-0.299,0.793-0.475,1.17c-0.188,0.369-0.389,0.729-0.615,1.075l-0.1-0.338
										C74.728,380.542,75.262,381.044,75.565,381.67z"/>
								</g>
								<g>
									<path style="fill:#FFA3A6;" d="M83.917,376.409c-0.342-0.201-0.691-0.133-1.09-0.157c-0.208-0.006-0.42-0.057-0.632-0.171
										c-0.21-0.11-0.405-0.37-0.419-0.643c0.019-0.514,0.185-0.813,0.348-1.183c0.172-0.35,0.368-0.68,0.615-0.987
										c-0.056,0.39-0.163,0.757-0.254,1.12c-0.073,0.345-0.219,0.765-0.211,1.015c-0.012,0.211,0.27,0.377,0.612,0.471
										C83.218,375.96,83.714,376.034,83.917,376.409z"/>
								</g>
								<g>
									<path style="fill:#FFA3A6;" d="M86.387,375.531l-2.484-0.73c-0.123-0.036-0.193-0.165-0.157-0.287
										c0.007-0.025,0.02-0.05,0.034-0.07l1.491-2.075l-1.058,2.325l-0.123-0.357L86.387,375.531z"/>
								</g>
								<g>
									<path style="fill:#FFA3A6;" d="M87.955,374.561c-0.603-0.143-1.152-0.382-1.684-0.653
										c-0.112-0.057-0.159-0.192-0.108-0.305l0.007-0.017c0.157-0.35,0.343-0.684,0.539-1.014
										c0.213-0.322,0.422-0.645,0.696-0.937c-0.065,0.395-0.195,0.757-0.32,1.122c-0.142,0.357-0.295,0.708-0.477,1.045
										l-0.101-0.321C87.019,373.788,87.514,374.126,87.955,374.561z"/>
								</g>
								<g>
									<path style="fill:#FFA3A6;" d="M90.089,373.826c-0.587-0.173-1.128-0.422-1.651-0.703
										c-0.113-0.061-0.155-0.201-0.094-0.313l0.016-0.026l0.011-0.015c0.519-0.712,1.088-1.387,1.807-1.945
										c-0.358,0.837-0.868,1.557-1.426,2.239l-0.067-0.354C89.18,373.035,89.657,373.392,90.089,373.826z"/>
								</g>
								<g>
									<path style="fill:#FFA3A6;" d="M92.838,372.721c-0.653-0.058-1.285-0.356-1.79-0.796c-0.097-0.084-0.107-0.231-0.023-0.328
										l0.007-0.008l0.011-0.011c0.646-0.674,1.336-1.304,2.158-1.799c-0.503,0.818-1.139,1.502-1.819,2.142l-0.005-0.347
										C91.801,372.004,92.286,372.372,92.838,372.721z"/>
								</g>
							</g>
						</g>
					</g>
				</g>
			</g>
			<g>
				<g>
					
						<ellipse transform="matrix(0.2114 -0.9774 0.9774 0.2114 -130.8352 288.8434)" style="fill:#FFD272;" cx="113.577" cy="225.499" rx="58.152" ry="56.06"/>
					<g>
						<defs>
							
								<ellipse id="SVGID_00000100383428197060967080000012370359103902826174_" transform="matrix(0.2114 -0.9774 0.9774 0.2114 -130.8352 288.8434)" cx="113.577" cy="225.499" rx="58.152" ry="56.06"/>
						</defs>
						<clipPath id="SVGID_00000106831404759652917950000000830476593324454275_">
							<use xlink:href="#SVGID_00000100383428197060967080000012370359103902826174_"  style="overflow:visible;"/>
						</clipPath>
						<path style="clip-path:url(#SVGID_00000106831404759652917950000000830476593324454275_);fill:#6780D3;" d="M106.143,165.962
							c-9.23,6.521-19.91,13.879-27.298,22.496c-7.388,8.617-12.77,19.196-13.109,30.413c-3.544-1.529-6.517-1.425-8.782-4.125
							c1.849-11.829,7.894-22.48,16.061-31.128C81.181,174.969,93.397,168.274,106.143,165.962z"/>
						<path style="clip-path:url(#SVGID_00000106831404759652917950000000830476593324454275_);fill:#6780D3;" d="M121.227,264.82
							c-15.692,8.114-34.869,8.23-50.934,1.051c5.714,7.942,12.466,11.759,21.608,14.993c9.142,3.234,20.631,2.68,30.35,0.616
							C122.552,275.45,122.045,271.842,121.227,264.82z"/>
						<path style="clip-path:url(#SVGID_00000106831404759652917950000000830476593324454275_);fill:#E4F0F6;" d="M131.297,166.54
							c-12.638,3.551-24.318,10.614-33.438,20.219c-9.12,9.605-15.654,21.727-18.707,34.702c0,0-13.304-2.375-13.42-2.37
							c0.166-11.569,5.809-22.521,13.404-31.162c7.595-8.641,17.074-15.302,26.455-21.876L131.297,166.54z"/>
						<path style="clip-path:url(#SVGID_00000106831404759652917950000000830476593324454275_);fill:#E4F0F6;" d="M121.227,264.82
							c-7.635,4.041-18.038,6.967-27.307,6.406c-9.269-0.562-18.244-3.49-26.806-7.117c-6.045-2.561-12.173-5.668-16.13-10.974
							c0,0,2.647-17.44,2.825-17.739c8.456,6.897,18.678,11.535,29.384,13.333c10.706,1.798,21.585,1.056,31.81-2.702
							L121.227,264.82z"/>
						<path style="clip-path:url(#SVGID_00000106831404759652917950000000830476593324454275_);fill:#E4F0F6;" d="M131.991,186.358
							c10.371,7.144,18.54,16.402,24.32,27.712c5.78,11.31,9.429,22.688,8.723,35.415c-1.487,9.512-7.307,18.248-15.534,22.992
							c-0.572,0.024-1.143,0.048-1.25,0.167c0.666-13.924-2.706-27.819-8.251-40.54c-5.545-12.721-13.214-24.361-21.263-35.544
							C121.933,192.813,131.446,187.081,131.991,186.358z"/>
						<path style="clip-path:url(#SVGID_00000106831404759652917950000000830476593324454275_);fill:#6780D3;" d="M118.609,196.615
							c21.967,33.392,29.284,48.568,29.64,77.035c-6.402,7.191-16.621,11.486-26.109,10.653c1.99-32.94-20.034-62.399-19.338-63.952
							C107.621,209.599,118.609,196.615,118.609,196.615z"/>
						<g style="clip-path:url(#SVGID_00000106831404759652917950000000830476593324454275_);">
							<g>
								<path d="M154.117,181.784c-5.732,0.031-11.466,0.821-16.831,2.749c-5.377,1.888-10.285,4.947-14.518,8.731
									c-4.261,3.77-7.864,8.24-11.049,12.966c-3.174,4.742-6.008,9.714-8.729,14.752c-0.068,0.128-0.194,0.212-0.326,0.237
									c-7.534,1.346-15.262,1.601-22.853,0.721c-3.794-0.436-7.563-1.112-11.248-2.103c-3.685-0.982-7.304-2.211-10.793-3.732
									c3.556,1.354,7.191,2.488,10.89,3.345c3.699,0.848,7.445,1.487,11.219,1.835c7.546,0.689,15.178,0.386,22.62-0.98
									l-0.326,0.237c2.7-5.061,5.487-10.102,8.749-14.854c3.245-4.751,6.924-9.26,11.281-13.067
									c4.35-3.8,9.429-6.792,14.905-8.607C142.586,182.192,148.393,181.569,154.117,181.784z"/>
							</g>
							<g>
								<path d="M140.726,277.124c-3.337,1.454-6.849,2.487-10.393,3.327c-3.546,0.847-7.149,1.435-10.765,1.878
									c-3.62,0.412-7.258,0.68-10.902,0.712c-3.641,0.039-7.291-0.089-10.896-0.581c1.819,0.02,3.63,0.062,5.442,0.005
									c1.811-0.023,3.621-0.086,5.427-0.192c3.613-0.213,7.219-0.504,10.81-0.936c3.593-0.415,7.167-0.972,10.723-1.634
									c1.778-0.332,3.546-0.717,5.304-1.149c0.885-0.196,1.754-0.447,2.634-0.668L140.726,277.124z"/>
							</g>
							<g>
								<path d="M102.802,220.351c2.838,4.891,5.502,9.883,7.989,14.968c2.485,5.086,4.74,10.285,6.717,15.606
									c1.876,5.373,3.186,10.924,3.977,16.542c0.777,5.616,1.095,11.309,0.669,16.953c-0.001-2.827-0.104-5.649-0.368-8.456
									c-0.233-2.809-0.588-5.606-1.062-8.381c-0.941-5.547-2.232-11.046-4.157-16.321c-1.882-5.304-4.143-10.479-6.47-15.617
									C107.763,230.507,105.276,225.435,102.802,220.351z"/>
							</g>
							<g>
								<path d="M115.004,246.028c-2.479,0.912-5.012,1.693-7.592,2.303c-2.585,0.577-5.2,1.052-7.842,1.32
									c-2.637,0.317-5.299,0.398-7.955,0.353c-2.658-0.017-5.311-0.252-7.949-0.58c-2.636-0.361-5.237-0.93-7.814-1.579
									c-2.557-0.723-5.106-1.487-7.558-2.527c-2.451-1.032-4.833-2.256-7.021-3.777c-2.157-1.555-4.128-3.399-5.627-5.581
									c3.353,4.128,8.062,6.788,12.933,8.645c2.457,0.912,4.966,1.692,7.5,2.36c2.55,0.611,5.12,1.14,7.722,1.47
									c5.189,0.739,10.465,0.883,15.697,0.454C104.74,248.503,109.925,247.479,115.004,246.028z"/>
							</g>
							<g>
								<path d="M121.227,264.82c-4.195,2.441-8.758,4.265-13.482,5.485c-4.73,1.21-9.629,1.734-14.516,1.682
									c-4.877-0.133-9.795-0.858-14.385-2.599c-2.29-0.87-4.487-1.997-6.489-3.404c-1.982-1.429-3.79-3.111-5.226-5.07
									c1.611,1.814,3.459,3.393,5.499,4.663c2.02,1.298,4.207,2.324,6.479,3.088c4.54,1.552,9.339,2.268,14.143,2.323
									c4.804,0.133,9.616-0.394,14.318-1.428C112.267,268.509,116.843,266.894,121.227,264.82z"/>
							</g>
							<g>
								<path d="M32.893,260.56c0.04-0.562,0.283-0.896,0.573-1.176c0.311-0.256,0.672-0.457,1.236-0.428
									c-0.039,0.564-0.282,0.898-0.573,1.176C33.816,260.387,33.456,260.588,32.893,260.56z"/>
							</g>
							<g>
								<path d="M118.609,196.615c4.296,5.54,8.334,11.288,12.02,17.268c3.688,5.977,6.957,12.222,9.734,18.687
									c2.701,6.494,4.896,13.217,6.282,20.119c0.685,3.45,1.191,6.936,1.48,10.439c0.257,3.504,0.337,7.022,0.123,10.523
									c-0.012-3.505-0.191-7.005-0.611-10.476c-0.387-3.473-0.974-6.922-1.745-10.326c-1.53-6.812-3.698-13.475-6.45-19.89
									c-2.68-6.449-5.94-12.646-9.47-18.681C126.439,208.241,122.571,202.398,118.609,196.615z"/>
							</g>
							<g>
								<path d="M131.991,186.358c5.663,3.641,10.77,8.158,15.197,13.263c4.432,5.106,8.131,10.843,11.072,16.936
									c2.869,6.128,4.979,12.615,6.188,19.265c0.598,3.325,0.993,6.685,1.175,10.053c0.148,3.369,0.123,6.746-0.177,10.098
									c0.074-3.363,0.001-6.725-0.312-10.065c-0.279-3.341-0.758-6.663-1.441-9.94c-1.353-6.554-3.431-12.961-6.335-18.982
									c-2.832-6.056-6.493-11.712-10.754-16.87C142.339,194.958,137.415,190.336,131.991,186.358z"/>
							</g>
							<g>
								<path d="M79.334,221.236c0.788-3.118,1.677-6.222,2.801-9.246c1.136-3.017,2.394-5.999,3.887-8.867
									c2.955-5.749,6.681-11.114,11.05-15.896c4.432-4.717,9.414-8.938,14.927-12.33c2.76-1.685,5.623-3.204,8.596-4.467
									c2.984-1.234,6.047-2.277,9.185-2.999c-6.161,1.861-12.013,4.617-17.369,8.116c-5.364,3.485-10.286,7.647-14.605,12.357
									c-4.374,4.666-8.037,9.965-11.107,15.578C83.622,209.1,81.263,215.099,79.334,221.236z"/>
							</g>
							<g>
								<path d="M113.648,163.83c-3.052,1.05-6.024,2.312-8.83,3.885c-2.828,1.527-5.531,3.276-8.115,5.184
									c-5.158,3.822-10.041,8.058-14.484,12.688c-4.469,4.596-8.428,9.723-11.345,15.432c-1.459,2.849-2.67,5.836-3.51,8.934
									c-0.893,3.085-1.368,6.286-1.495,9.511c-0.099-3.229,0.279-6.475,1.021-9.633c0.753-3.159,1.899-6.219,3.296-9.153
									c2.822-5.876,6.854-11.084,11.314-15.782c2.261-2.329,4.645-4.528,7.101-6.638c2.464-2.099,4.979-4.152,7.658-5.98
									C101.562,168.568,107.393,165.494,113.648,163.83z"/>
							</g>
						</g>
					</g>
				</g>
				<g>
					<path style="fill:#FFA3A6;" d="M-23.1,348.367c23.556-21.316,47.111-42.631,70.703-64.146
						c3.272-3.533,8.412-4.791,13.222-4.576c4.81,0.216,11.394,1.719,16.071,2.862c7.603,1.859,20.726,3.685,32.095,2.071
						c6.767-0.961-8.318-6.879-9.631-7.374c-13.14-4.953-16.798-6.15-27.283-13.044c-0.103-3.502,3.551-7.259,5.932-10.007
						c2.966-3.423,12.078-12.814,9.691-16.513c-1.589-2.462-6.426-0.409-9.006,0.98c-6.91,3.721-11.52,5.77-17.497,9.845
						c2.918-13.958,5.781-15.738,11.544-22.672c1.901-2.287,2.079-5.993,0.575-7.485c-3.075-3.049-8.428,0.576-10.233,2.057
						c1.498-3.452,2.923-5.774,3.933-9.399c0.366-1.315,1.066-4.274,0.218-5.344c-1.802-2.271-3.806-0.963-6.611,0.786
						c1.698-1.274,1.991-2.41,2.662-4.424c0.413-1.241,0.786-4.095-1.338-4.108c-1.569-0.009-2.704,0.876-3.629,2.143
						c-6.786,9.298-11.799,19.886-14.692,31.028c-1.755,6.759-2.815,13.908-6.622,19.762c-3.284,5.049-8.318,8.66-13.293,12.055
						c-16.707,11.401-34.123,21.763-52.114,31.007c-5.062,2.601-10.451,5.37-13.318,10.287c-2.859,4.903-2.624,10.948-2.238,16.611
						c0.361,5.299,0.798,10.677,2.666,15.649C-39.427,341.391-35.916,345.986-23.1,348.367z"/>
					<g>
						<g>
							<path d="M61.924,248.088c-1.415,1.117-2.707,2.211-3.852,3.481c-1.162,1.254-2.137,2.637-3.126,4.145
								c0.246-1.8,1.168-3.47,2.389-4.819C58.573,249.561,60.154,248.495,61.924,248.088z"/>
						</g>
						<g>
							<path d="M63.082,220.367c-1.409,1.104-2.67,2.34-3.922,3.585c-1.237,1.26-2.445,2.546-3.605,3.876
								c-1.168,1.322-2.288,2.686-3.369,4.079c-1.063,1.407-2.114,2.824-2.976,4.393c0.504-1.723,1.364-3.337,2.338-4.843
								c0.972-1.515,2.081-2.932,3.256-4.289c1.195-1.34,2.457-2.621,3.827-3.786C59.992,222.215,61.465,221.144,63.082,220.367z"/>
						</g>
						<g>
							<path d="M61.653,205.707c-0.854,0.715-1.618,1.515-2.364,2.332c-0.758,0.804-1.502,1.622-2.216,2.467
								c-1.437,1.681-2.865,3.366-4.242,5.094c-1.398,1.711-2.725,3.477-4.05,5.245c-0.671,0.88-1.3,1.788-1.926,2.701l-0.945,1.369
								c-0.295,0.469-0.601,0.933-0.916,1.395c0.848-2.065,1.959-4.013,3.152-5.9c1.19-1.891,2.512-3.695,3.906-5.437
								c1.41-1.729,2.874-3.417,4.46-4.99C58.104,208.429,59.716,206.841,61.653,205.707z"/>
						</g>
						<g>
							<path d="M39.01,245.913c-0.146,2.43-0.394,4.786-0.53,7.164c-0.166,2.375-0.222,4.744-0.39,7.173
								c-0.622-2.359-0.749-4.813-0.607-7.237C37.654,250.591,38.094,248.173,39.01,245.913z"/>
						</g>
						<g>
							<path d="M72.393,263.795c-0.543,1.134-0.994,2.144-1.303,3.233c-0.328,1.084-0.495,2.176-0.655,3.424
								c-0.63-1.11-0.654-2.486-0.304-3.706C70.499,265.532,71.264,264.389,72.393,263.795z"/>
						</g>
					</g>
				</g>
			</g>
		</g>
		<g style="clip-path:url(#SVGID_00000157300636344550966640000010239874293878315658_);">
			<path style="fill:none;stroke:#FFC384;stroke-linecap:round;stroke-linejoin:round;stroke-miterlimit:10;" d="M28.149,67.081
				c-0.081,2.162-1.9,3.85-4.062,3.769s-3.85-1.9-3.769-4.062c0.081-2.162,1.9-3.85,4.062-3.769S28.23,64.919,28.149,67.081z"/>
			<path style="fill:#FFC384;" d="M82.508,125.397c-0.118-2.876,0.28-6.473,4.131-7.539c-2.706-1.182-4.118-3.917-3.842-6.857
				c-0.544,2.942-1.901,6.206-5.538,6.321C81.581,118.441,82.434,122.625,82.508,125.397z"/>
			<path style="fill:#FFC384;" d="M421.112,111.002c-0.118-2.876,0.28-6.473,4.131-7.539c-2.706-1.182-4.118-3.917-3.842-6.857
				c-0.544,2.942-1.901,6.206-5.538,6.321C420.184,104.045,421.037,108.229,421.112,111.002z"/>
			<path style="fill:none;stroke:#FFC384;stroke-linecap:round;stroke-linejoin:round;stroke-miterlimit:10;" d="M405.992,67.081
				c-0.081,2.162-1.9,3.85-4.062,3.769c-2.163-0.081-3.85-1.9-3.769-4.062c0.081-2.162,1.9-3.85,4.062-3.769
				C404.386,63.1,406.073,64.919,405.992,67.081z"/>
			<path style="fill:none;stroke:#FFC384;stroke-linecap:round;stroke-linejoin:round;stroke-miterlimit:10;" d="M298.149,223.199
				c-0.081,2.162-1.9,3.85-4.062,3.769c-2.162-0.081-3.85-1.9-3.769-4.062c0.081-2.162,1.9-3.85,4.062-3.769
				C296.543,219.218,298.23,221.037,298.149,223.199z"/>
			<path style="fill:#FFC384;" d="M454.915,52.442c-0.041,1.081-0.859,1.928-1.828,1.892s-1.722-0.942-1.682-2.023
				c0.041-1.081,0.859-1.928,1.828-1.892C454.202,50.455,454.955,51.361,454.915,52.442z"/>
			<g>
				<path style="fill:#FFC384;" d="M333.51,213.446c-0.017-0.149-0.131-0.412-0.134-0.637l-0.05-0.594
					c-0.024-0.397-0.04-0.798-0.01-1.2c0.054-0.8,0.175-1.62,0.493-2.395c0.308-0.776,0.809-1.5,1.467-2.049
					c0.653-0.558,1.449-0.913,2.253-1.114l-0.055,0.779c-1.344-0.661-2.406-1.79-3.036-3.083c-0.653-1.287-0.932-2.73-0.869-4.174
					l0.454,0.063c-0.211,1.527-0.566,3.104-1.495,4.472c-0.467,0.672-1.086,1.273-1.831,1.684c-0.742,0.414-1.59,0.629-2.421,0.656
					l0.117-1.049c0.899,0.234,1.764,0.648,2.505,1.228c0.741,0.582,1.321,1.342,1.743,2.153c0.432,0.811,0.674,1.694,0.817,2.571
					c0.08,0.438,0.116,0.881,0.127,1.322c0.012,0.22,0.005,0.441,0.006,0.66C333.615,212.948,333.525,213.284,333.51,213.446z
					 M333.507,213.346c-0.038-0.271-0.135-0.369-0.148-0.592c-0.038-0.213-0.068-0.426-0.117-0.636
					c-0.091-0.42-0.187-0.837-0.31-1.243c-0.241-0.814-0.582-1.585-1.007-2.284c-0.86-1.412-2.242-2.339-3.799-2.754
					c-0.285-0.076-0.454-0.369-0.378-0.654c0.061-0.23,0.269-0.385,0.495-0.396c0.696-0.033,1.376-0.165,1.986-0.471
					c0.611-0.302,1.142-0.768,1.574-1.331c0.872-1.128,1.414-2.565,1.769-4.027l0.006-0.024c0.03-0.123,0.153-0.198,0.276-0.168
					c0.116,0.028,0.189,0.14,0.172,0.255c-0.199,1.345,0.027,2.783,0.719,3.964c0.697,1.184,1.83,2.037,3.06,2.491
					c0.21,0.077,0.317,0.311,0.24,0.52c-0.044,0.119-0.138,0.205-0.249,0.243l-0.046,0.016c-0.701,0.236-1.353,0.556-1.91,0.999
					c-0.556,0.444-0.997,1.024-1.322,1.681c-0.319,0.66-0.551,1.386-0.68,2.141c-0.061,0.378-0.125,0.76-0.171,1.146l-0.057,0.583
					C333.613,212.974,333.514,213.103,333.507,213.346z"/>
			</g>
			<path style="fill:#FFC384;" d="M83.704,84.458c-0.04,1.081-0.859,1.928-1.828,1.892s-1.722-0.942-1.682-2.023
				c0.041-1.081,0.859-1.928,1.828-1.892C82.992,82.471,83.745,83.377,83.704,84.458z"/>
			<path style="fill:#FFC384;" d="M297.963,170.463c-0.041,1.081-0.859,1.928-1.829,1.892c-0.969-0.036-1.722-0.942-1.682-2.023
				c0.04-1.081,0.859-1.928,1.828-1.892C297.251,168.476,298.004,169.382,297.963,170.463z"/>
			<path style="fill:#FFC384;" d="M44.091,133.442c-0.041,1.081-0.859,1.928-1.829,1.892c-0.969-0.036-1.722-0.942-1.682-2.024
				c0.041-1.081,0.859-1.928,1.828-1.892C43.378,131.455,44.131,132.361,44.091,133.442z"/>
		</g>
	</g>
</g>
</svg>
